# xmcd
#
# Track frame offsets:
#	182
#	31965
#	53060
#	87632
#	111935
#	170645
#	223715
#	236477
#	266407
#
# Disc length: 3939 seconds
#
# Revision: 0
# Processed by: cddbd v1.5.2PL0 Copyright (c) Steve Scherf et al.
# Submitted via: audiograbber 1.83.01
#
DISCID=7c0f6109
DTITLE=Music Factory - Mastermix 79
DYEAR=1993
DGENRE=Remix
TTITLE0=Dance Insert Vol 2
TTITLE1=Rockit 93 Remix
TTITLE2=No Limit X-Static Remix
TTITLE3=Sister Sledge Megamix
TTITLE4=Disco Fever 79
TTITLE5=The Session Part 1
TTITLE6=Bits`n`Pieces Comp No 3
TTITLE7=Play It
TTITLE8=Fascinated TNT Remix
EXTD=
EXTT0=
EXTT1=
EXTT2=
EXTT3=
EXTT4=
EXTT5=
EXTT6=
EXTT7=
EXTT8=
PLAYORDER=
